# xmcd CD database file
#
# Track frame offsets:
#	150
#	17472
#	43811
#	63137
#	81450
#	99503
#	116488
#	142076
#	164616
#	183635
#
# Disc length: 3030 seconds
#
# Revision: 0
# Processed by: cddbd v1.5.1PL2 Copyright (c) Steve Scherf et al.
# Submitted via: CDex 1.51
#
DISCID=880bd40a
DTITLE=Christophe Alévêque - En Live avec son Groupo
DYEAR=2006
DGENRE=Blues
TTITLE0=Attention !
TTITLE1=Mon Doudou
TTITLE2=TV Boy
TTITLE3=La Vieille
TTITLE4=Sacré" Robert
TTITLE5=Y'a ce qu'on dit, y'a ce qu'on pense
TTITLE6=Maman
TTITLE7=T'eb a larre
TTITLE8=Naïve et pute
TTITLE9=L'équipe qui gagne
EXTD=YEAR: 2006
EXTT0=
EXTT1=
EXTT2=
EXTT3=
EXTT4=
EXTT5=
EXTT6=
EXTT7=
EXTT8=
EXTT9=
PLAYORDER=
